<svg width="81" height="52" viewBox="0 0 81 52" fill="none" xmlns="http://www.w3.org/2000/svg">
<path d="M64.098 25.764C62.7228 25.7643 61.3719 26.1264 60.181 26.814C58.9799 26.1227 57.618 25.7596 56.2322 25.761C54.8464 25.7624 53.4853 26.1284 52.2857 26.8221C51.086 27.5158 50.0899 28.5129 49.3974 29.7133C48.7049 30.9137 48.3403 32.2752 48.3403 33.661C48.3403 35.0468 48.7049 36.4083 49.3974 37.6086C50.0899 38.809 51.086 39.8061 52.2857 40.4999C53.4853 41.1936 54.8464 41.5596 56.2322 41.561C57.618 41.5624 58.9799 41.1993 60.181 40.508C61.2308 41.1086 62.4046 41.4599 63.6118 41.5348C64.8189 41.6097 66.0272 41.4062 67.1432 40.94C68.2592 40.4737 69.2531 39.7573 70.0482 38.8459C70.8434 37.9345 71.4184 36.8525 71.729 35.6836C72.0395 34.5147 72.0773 33.29 71.8393 32.1041C71.6014 30.9183 71.0941 29.803 70.3566 28.8443C69.6191 27.8857 68.6712 27.1093 67.586 26.5752C66.5009 26.0412 65.3075 25.7636 64.098 25.764ZM60.181 36.569C59.5445 35.7332 59.1998 34.7116 59.1998 33.661C59.1998 32.6104 59.5445 31.5888 60.181 30.753C60.8162 31.5894 61.1601 32.6107 61.1601 33.661C61.1601 34.7112 60.8162 35.7326 60.181 36.569ZM51.367 33.661C51.367 32.3614 51.8832 31.1151 52.8021 30.1962C53.7211 29.2772 54.9674 28.761 56.267 28.761C56.7652 28.768 57.2594 28.852 57.732 29.01C56.7389 30.357 56.2031 31.9865 56.2031 33.66C56.2031 35.3335 56.7389 36.963 57.732 38.31C57.2595 38.4685 56.7653 38.5525 56.267 38.559C54.9678 38.559 53.7217 38.043 52.8028 37.1245C51.884 36.206 51.3675 34.9602 51.367 33.661ZM64.098 38.561C63.5997 38.5543 63.1055 38.4703 62.633 38.312C63.626 36.965 64.1618 35.3355 64.1618 33.662C64.1618 31.9885 63.626 30.359 62.633 29.012C63.1056 28.8541 63.5997 28.7702 64.098 28.763C64.7566 28.7381 65.4134 28.8463 66.0292 29.0811C66.645 29.316 67.2071 29.6727 67.6819 30.1298C68.1566 30.5869 68.5343 31.1352 68.7922 31.7416C69.0502 32.3481 69.1831 33.0004 69.1831 33.6595C69.1831 34.3186 69.0502 34.9708 68.7922 35.5773C68.5343 36.1838 68.1566 36.732 67.6819 37.1892C67.2071 37.6463 66.645 38.003 66.0292 38.2378C65.4134 38.4727 64.7566 38.5809 64.098 38.556V38.561Z" fill="#B0B0B0"/>
<path d="M75.318 0H4.787C3.5179 0.0015877 2.30123 0.506441 1.40383 1.40383C0.506441 2.30123 0.0015877 3.5179 0 4.787V46.837C0.00132359 48.1062 0.506092 49.323 1.40354 50.2205C2.30099 51.1179 3.51782 51.6227 4.787 51.624H75.318C76.587 51.6224 77.8036 51.1175 78.7008 50.2201C79.598 49.3227 80.1027 48.106 80.104 46.837V4.787C80.1027 3.51799 79.598 2.30132 78.7008 1.40389C77.8036 0.506473 76.587 0.00158822 75.318 0ZM77.104 46.837C77.1037 47.3107 76.9155 47.7649 76.5807 48.1C76.2458 48.435 75.7917 48.6235 75.318 48.624H4.787C4.31322 48.6235 3.859 48.435 3.52398 48.1C3.18897 47.765 3.00053 47.3108 3 46.837V4.787C3.00053 4.31322 3.18897 3.859 3.52398 3.52398C3.859 3.18897 4.31322 3.00053 4.787 3H75.318C75.7917 3.00053 76.2458 3.189 76.5807 3.52405C76.9155 3.85909 77.1037 4.31331 77.104 4.787V46.837Z" fill="#B0B0B0"/>
<path d="M22.6399 22.89C23.6183 22.8879 24.556 22.4984 25.2479 21.8067C25.9398 21.115 26.3295 20.1774 26.3319 19.199V14.414C26.3298 13.4355 25.9401 12.4977 25.2482 11.8057C24.5563 11.1138 23.6184 10.7242 22.6399 10.722H13.4469C12.4682 10.7239 11.5301 11.1134 10.838 11.8054C10.1458 12.4973 9.75602 13.4353 9.75391 14.414V19.199C9.75628 20.1772 10.1459 21.1147 10.8376 21.8064C11.5293 22.498 12.4667 22.8877 13.4449 22.89H22.6399ZM12.7539 19.199V14.414C12.7542 14.2308 12.827 14.0551 12.9565 13.9254C13.086 13.7957 13.2616 13.7226 13.4449 13.722H22.6379C22.8213 13.7226 22.997 13.7957 23.1266 13.9253C23.2563 14.055 23.3294 14.2307 23.3299 14.414V19.199C23.3294 19.3823 23.2563 19.5579 23.1266 19.6874C22.9969 19.8169 22.8212 19.8898 22.6379 19.89H13.4469C13.356 19.8902 13.266 19.8724 13.182 19.8378C13.098 19.8031 13.0216 19.7522 12.9573 19.6881C12.8929 19.6239 12.8419 19.5477 12.807 19.4638C12.7721 19.3799 12.754 19.2899 12.7539 19.199Z" fill="#B0B0B0"/>
<path d="M43.108 36.463H12.667C12.2692 36.463 11.8876 36.621 11.6063 36.9024C11.325 37.1837 11.167 37.5652 11.167 37.963C11.167 38.3608 11.325 38.7424 11.6063 39.0237C11.8876 39.305 12.2692 39.463 12.667 39.463H43.108C43.5058 39.463 43.8873 39.305 44.1687 39.0237C44.45 38.7424 44.608 38.3608 44.608 37.963C44.608 37.5652 44.45 37.1837 44.1687 36.9024C43.8873 36.621 43.5058 36.463 43.108 36.463Z" fill="#B0B0B0"/>
<path d="M43.108 29.5291H12.667C12.47 29.5291 12.275 29.5679 12.093 29.6432C11.911 29.7186 11.7456 29.8291 11.6063 29.9684C11.467 30.1077 11.3566 30.273 11.2812 30.455C11.2058 30.637 11.167 30.8321 11.167 31.0291C11.167 31.226 11.2058 31.4211 11.2812 31.6031C11.3566 31.7851 11.467 31.9504 11.6063 32.0897C11.7456 32.229 11.911 32.3395 12.093 32.4149C12.275 32.4903 12.47 32.5291 12.667 32.5291H43.108C43.5058 32.5291 43.8873 32.371 44.1687 32.0897C44.45 31.8084 44.608 31.4269 44.608 31.0291C44.608 30.6312 44.45 30.2497 44.1687 29.9684C43.8873 29.6871 43.5058 29.5291 43.108 29.5291Z" fill="#B0B0B0"/>
<path d="M70.495 14.1901H49.103C48.7052 14.1901 48.3237 14.3481 48.0424 14.6294C47.7611 14.9107 47.603 15.2922 47.603 15.6901C47.603 16.0879 47.7611 16.4694 48.0424 16.7507C48.3237 17.032 48.7052 17.1901 49.103 17.1901H70.495C70.8929 17.1901 71.2744 17.032 71.5557 16.7507C71.837 16.4694 71.995 16.0879 71.995 15.6901C71.995 15.2922 71.837 14.9107 71.5557 14.6294C71.2744 14.3481 70.8929 14.1901 70.495 14.1901Z" fill="#B0B0B0"/>
</svg>
